<svg xmlns="http://www.w3.org/2000/svg" viewBox="0 0 512 512" width="512" height="512">
  <!--
    Quobi app icon / brand mark (rounded squircle).
    Feather: mdi:feather (Material Design Icons) — Apache License 2.0, recolored. See CREDITS.md.
    Coral feather (subtle gradient) on a warm off-white tile.
  -->
  <defs>
    <linearGradient id="coral" x1="0.15" y1="0" x2="0.85" y2="1">
      <stop offset="0" stop-color="#ff7059"/>
      <stop offset="1" stop-color="#e23c2a"/>
    </linearGradient>
  </defs>
  <rect x="16" y="16" width="480" height="480" rx="118" fill="#f6f4ef"/>
  <rect x="17" y="17" width="478" height="478" rx="117" fill="none" stroke="#e7e3da" stroke-width="3"/>
  <g transform="translate(88 88) scale(14)" fill="url(#coral)">
    <path d="M22 2s-7.64-.37-13.66 7.88C3.72 16.21 2 22 2 22l1.94-1c1.44-2.5 2.19-3.53 3.6-5c2.53.74 5.17.65 7.46-2c-2-.56-3.6-.43-5.96-.19C11.69 12 13.5 11.6 16 12l1-2c-1.8-.34-3-.37-4.78.04C14.19 8.65 15.56 7.87 18 8l1.21-1.93c-1.56-.11-2.5.06-4.29.5c1.61-1.46 3.08-2.12 5.22-2.25c0 0 1.05-1.89 1.86-2.32"/>
  </g>
</svg>
