<svg xmlns="http://www.w3.org/2000/svg" width="684" height="203" viewBox="0 0 683.5 203.1"><defs><linearGradient id="coral" x1="0.15" y1="0" x2="0.85" y2="1"><stop offset="0" stop-color="#ff7059"/><stop offset="1" stop-color="#e23c2a"/></linearGradient></defs>
  <g transform="translate(3.53 11.42) scale(7.2371)" fill="url(#coral)">
    <path d="M22 2s-7.64-.37-13.66 7.88C3.72 16.21 2 22 2 22l1.94-1c1.44-2.5 2.19-3.53 3.6-5c2.53.74 5.17.65 7.46-2c-2-.56-3.6-.43-5.96-.19C11.69 12 13.5 11.6 16 12l1-2c-1.8-.34-3-.37-4.78.04C14.19 8.65 15.56 7.87 18 8l1.21-1.93c-1.56-.11-2.5.06-4.29.5c1.61-1.46 3.08-2.12 5.22-2.25c0 0 1.05-1.89 1.86-2.32"/>
  </g>
  <path transform="translate(168.24 140.96) scale(0.16000 -0.16000)" fill="#201d1a" d="M574.75 -217.75Q507.25 -217.75 457.5 -201.875Q407.75 -186 380.125 -144.25Q352.5 -102.5 352.5 -24.5V87.5H505.5V-31.25Q505.5 -60.5 522.0 -75.75Q538.5 -91 567.5 -91H676.5V-217.75ZM432.25 -19.5Q332.75 -19.5 259.5 15.125Q186.25 49.75 138.0 106.375Q89.75 163 66.125 228.75Q42.5 294.5 42.5 356V378Q42.5 446 67.0 512.375Q91.5 578.75 140.75 632.875Q190 687 262.75 719.25Q335.5 751.5 432.25 751.5Q528.25 751.5 601.0 719.25Q673.75 687 723.0 632.875Q772.25 578.75 797.125 512.375Q822 446 822 378V356Q822 294.5 798.0 228.75Q774 163 725.75 106.375Q677.5 49.75 604.25 15.125Q531 -19.5 432.25 -19.5ZM432.25 133.5Q484.25 133.5 525.625 151.5Q567 169.5 596.25 201.625Q625.5 233.75 640.75 275.75Q656 317.75 656 366Q656 417.25 640.375 459.75Q624.75 502.25 595.5 533.375Q566.25 564.5 524.875 581.5Q483.5 598.5 432.25 598.5Q380.25 598.5 338.875 581.5Q297.5 564.5 268.25 533.375Q239 502.25 223.75 459.75Q208.5 417.25 208.5 366Q208.5 317.75 223.75 275.75Q239 233.75 268.25 201.625Q297.5 169.5 338.875 151.5Q380.25 133.5 432.25 133.5Z"/>
  <path transform="translate(304.72 140.96) scale(0.16000 -0.16000)" fill="#201d1a" d="M257.5 -17.5Q163.25 -17.5 111.875 44.125Q60.5 105.75 60.5 230.25V547.75H221V221.75Q221 178.25 246.0 152.125Q271 126 313.25 126Q356 126 382.75 152.875Q409.5 179.75 409.5 225.75V547.75H570V0H443V231.25H453.5Q453.5 147.75 432.125 92.5Q410.75 37.25 368.875 9.875Q327 -17.5 264.5 -17.5Z"/>
  <path transform="translate(406.16 140.96) scale(0.16000 -0.16000)" fill="#201d1a" d="M340.25 -19.5Q268 -19.5 212.0 3.0Q156 25.5 117.25 64.625Q78.5 103.75 58.5 154.25Q38.5 204.75 38.5 261V283.5Q38.5 341.25 59.375 392.625Q80.25 444 119.5 483.125Q158.75 522.25 214.75 544.625Q270.75 567 340.25 567Q410.5 567 466.125 544.625Q521.75 522.25 561.0 483.125Q600.25 444 621.125 392.625Q642 341.25 642 283.5V261Q642 204.75 622.0 154.25Q602 103.75 563.25 64.625Q524.5 25.5 468.5 3.0Q412.5 -19.5 340.25 -19.5ZM340.25 116Q386.75 116 418.0 136.125Q449.25 156.25 465.375 191.875Q481.5 227.5 481.5 272.25Q481.5 318.75 464.875 354.375Q448.25 390 416.625 410.75Q385 431.5 340.25 431.5Q295.75 431.5 264.0 410.75Q232.25 390 215.625 354.375Q199 318.75 199 272.25Q199 227.5 215.125 191.875Q231.25 156.25 262.875 136.125Q294.5 116 340.25 116Z"/>
  <path transform="translate(513.36 140.96) scale(0.16000 -0.16000)" fill="#e8402c" d="M410 -18Q342.5 -18 291.75 10.25Q241 38.5 212.125 92.875Q183.25 147.25 181 225.25H199.5V0H72.5V730H233V359.25L194.5 311Q197.75 393.5 226.5 450.0Q255.25 506.5 305.0 535.25Q354.75 564 418.75 564Q475 564 520.5 543.25Q566 522.5 598.125 485.0Q630.25 447.5 647.5 396.875Q664.75 346.25 664.75 286.25V263.75Q664.75 203.75 647.375 152.625Q630 101.5 596.5 63.0Q563 24.5 516.0 3.25Q469 -18 410 -18ZM368.25 115.5Q408.75 115.5 439.375 135.875Q470 156.25 487.125 192.375Q504.25 228.5 504.25 275Q504.25 322.25 487.0 357.125Q469.75 392 439.5 411.25Q409.25 430.5 368.25 430.5Q331.5 430.5 299.875 413.875Q268.25 397.25 248.625 365.375Q229 333.5 229 288.5V251.5Q229 208.5 249.5 178.125Q270 147.75 302.0 131.625Q334 115.5 368.25 115.5Z"/>
  <path transform="translate(624.08 140.96) scale(0.16000 -0.16000)" fill="#e8402c" d="M98.5 0V547.5H259V0ZM25.5 429.5V547.5H259V429.5ZM161.125 602Q116 602 94.5 625.375Q73 648.75 73 685.25Q73 721.75 94.58928571428572 745.125Q116.17857142857143 768.5 160.75 768.5Q206.25 768.5 227.375 745.125Q248.5 721.75 248.5 685.25Q248.5 648.75 227.375 625.375Q206.25 602 161.125 602Z"/>
</svg>
